<?xml version="1.0" standalone="no"?>
<!DOCTYPE svg PUBLIC "-//W3C//DTD SVG 20010904//EN"
 "http://www.w3.org/TR/2001/REC-SVG-20010904/DTD/svg10.dtd">
<svg version="1.0" xmlns="http://www.w3.org/2000/svg"
 width="1080.000000pt" height="1080.000000pt" viewBox="0 0 1080.000000 1080.000000"
 preserveAspectRatio="xMidYMid meet">
<metadata>
Created by potrace 1.16, written by Peter Selinger 2001-2019
</metadata>
<g transform="translate(0.000000,1080.000000) scale(0.100000,-0.100000)"
fill="#000000" stroke="none">
<path d="M4666 7459 c-35 -27 -56 -70 -56 -112 0 -30 3 -34 23 -30 12 3 29 18
37 36 27 55 62 72 148 72 l77 0 5 -185 c5 -178 6 -185 25 -181 11 2 32 3 48 4
15 0 27 1 27 3 0 9 -44 43 -51 38 -4 -2 -7 4 -6 15 0 11 5 17 9 15 4 -3 8 9 8
26 0 18 -4 29 -10 25 -6 -3 -10 4 -9 17 l0 23 16 -22 c8 -13 19 -23 23 -23 8
0 6 37 -3 46 -12 12 -8 24 8 24 8 0 15 5 15 11 0 5 10 9 23 7 12 -2 21 2 20 8
-1 7 10 15 24 19 22 5 24 8 12 17 -11 8 -10 9 4 4 15 -5 58 14 77 34 13 13 57
33 113 50 55 17 98 19 391 21 l329 1 36 -35 c20 -19 51 -49 70 -66 l33 -32 -6
28 c-15 63 -51 118 -91 140 l-40 23 -572 0 c-503 0 -573 -2 -573 -15 0 -20
-55 -20 -94 0 -38 20 -58 19 -90 -6z"/>
<path d="M5552 7294 c-34 -24 -27 -48 33 -107 30 -30 55 -60 55 -68 0 -8 -9
-29 -20 -46 l-20 -33 -381 0 c-376 0 -380 0 -374 -20 6 -18 2 -20 -49 -20 -47
0 -60 4 -77 24 -21 24 -80 43 -99 31 -10 -6 -4 -23 23 -59 13 -18 40 -18 683
-17 666 2 669 2 691 23 28 26 30 58 5 58 -10 0 -40 -7 -66 -16 -26 -9 -50 -14
-53 -11 -3 3 3 20 14 38 13 23 38 42 88 65 l70 33 -41 1 c-23 0 -69 3 -102 6
-60 7 -61 7 -42 24 23 20 26 32 6 24 -9 -4 -16 6 -20 30 -4 20 -15 40 -26 46
-10 5 -76 10 -147 10 -100 0 -133 -3 -151 -16z"/>
<path d="M4068 6886 l-28 -10 0 -165 c0 -119 -4 -177 -15 -206 -10 -28 -14
-87 -15 -199 0 -137 -2 -157 -15 -146 -11 9 -20 8 -44 -6 -36 -22 -41 -37 -41
-146 0 -78 2 -89 25 -116 14 -17 39 -33 55 -37 l30 -7 0 -127 c0 -117 2 -131
23 -162 12 -18 38 -44 56 -56 32 -22 44 -23 197 -23 l164 0 0 -380 c0 -229 4
-399 11 -428 21 -100 121 -172 239 -172 61 0 66 -15 9 -23 -50 -7 -59 -18 -59
-79 0 -35 6 -54 24 -75 l24 -28 257 -3 c243 -3 258 -2 289 18 46 28 147 28
183 0 24 -19 41 -20 280 -20 276 0 301 4 341 55 16 20 22 41 22 80 l0 52 -42
10 c-40 10 -36 11 48 12 l91 1 56 59 c31 32 59 69 62 83 3 13 7 206 8 429 l2
404 170 5 c146 4 175 8 204 25 49 29 58 47 39 84 -11 23 -13 42 -7 69 5 20 12
51 15 67 4 17 9 24 11 18 11 -31 23 -8 23 45 0 56 1 59 32 73 45 20 68 57 75
121 5 50 3 57 -16 67 -24 13 -28 31 -6 31 34 0 3 64 -40 84 l-33 16 -3 147
c-4 134 -6 151 -27 180 -19 27 -22 44 -23 130 0 54 -3 91 -6 83 -4 -8 -12 -20
-19 -28 -11 -10 -15 -9 -24 8 -6 11 -7 20 -3 20 4 0 2 4 -6 9 -8 5 -17 26 -22
47 -5 26 -7 0 -6 -79 l2 -117 -167 0 -168 0 0 -186 c0 -178 -1 -185 -19 -179
-13 4 -23 0 -29 -12 -7 -11 -11 55 -14 208 -4 259 -3 254 -100 344 -111 103
-50 96 -812 93 l-664 -3 -26 -24 c-14 -13 -28 -36 -31 -50 -3 -15 -33 -54 -66
-87 -34 -32 -65 -69 -70 -81 -8 -23 -11 -23 -184 -23 l-175 0 -1 143 c-1 167
-3 177 -41 163z m1953 -145 c47 -31 111 -108 128 -154 7 -17 11 -121 11 -258
0 -193 -3 -235 -16 -261 -22 -42 -108 -133 -153 -161 l-36 -22 -580 -3 c-392
-2 -592 0 -617 8 -41 12 -127 85 -170 144 l-28 39 0 235 c0 277 0 278 108 391
l67 71 621 0 621 0 44 -29z m-1761 -701 c0 -420 -2 -480 -15 -480 -13 0 -15
58 -15 465 0 318 -3 465 -10 465 -20 0 -69 -30 -79 -49 -7 -12 -6 -22 1 -29 9
-9 3 -12 -24 -12 l-35 0 7 42 c9 50 27 61 105 69 33 3 61 6 63 7 1 1 2 -214 2
-478z m2415 449 c9 -8 17 -31 19 -50 2 -19 2 -26 -1 -17 -2 9 -23 23 -46 31
-23 8 -50 18 -59 22 -17 7 -18 -18 -18 -435 l0 -441 45 7 c28 4 45 2 45 -4 0
-17 -24 -29 -72 -35 l-48 -7 -2 476 c-2 262 -2 477 -1 478 9 8 126 -13 138
-25z m-2507 -511 c-2 -294 -6 -382 -15 -386 -10 -3 -13 72 -13 355 0 235 -4
353 -10 343 -8 -12 -10 -10 -10 10 0 49 -19 4 -23 -55 l-3 -60 -2 72 c-2 64 0
74 20 87 12 9 31 16 40 16 17 0 18 -21 16 -382z m2504 365 c17 -15 18 -36 16
-272 -1 -141 -3 -239 -5 -218 -3 27 -8 37 -18 34 -9 -4 -11 1 -8 16 4 19 3 20
-6 6 -6 -10 -15 -48 -20 -85 -6 -51 -9 9 -10 234 -1 276 0 302 16 302 9 0 25
-7 35 -17z m-1527 -633 c8 -13 72 -13 80 -1 3 6 186 9 473 8 l467 -2 3 -45 c1
-25 5 -52 8 -60 4 -13 6 -13 14 0 6 10 10 -85 10 -257 0 -193 -3 -273 -11
-273 -6 0 -9 7 -6 15 4 8 1 17 -5 21 -7 4 -8 3 -4 -4 5 -8 -1 -12 -14 -12 -15
0 -67 44 -154 128 -72 71 -142 135 -156 144 -14 9 -52 19 -85 22 -86 10 -95
21 -95 126 0 113 -8 154 -26 139 -8 -6 -20 -9 -28 -6 -21 8 -26 -14 -26 -112
0 -74 -3 -93 -21 -115 -20 -26 -21 -26 -157 -26 -126 0 -137 2 -159 22 -20 19
-23 31 -24 107 -2 120 -7 136 -44 137 -16 0 -33 -4 -37 -10 -4 -6 -8 -57 -8
-114 0 -141 -1 -142 -106 -142 -66 0 -94 -5 -125 -20 -22 -12 -105 -86 -185
-165 -80 -80 -149 -145 -154 -145 -6 0 -10 126 -10 325 l0 325 289 0 c183 0
292 -4 296 -10z m681 -450 c12 -25 45 -115 74 -200 28 -85 56 -159 62 -165 5
-5 19 -10 31 -11 12 0 36 -2 52 -4 40 -4 -68 -17 -153 -19 -58 -1 -66 2 -93
28 -29 29 -29 30 -29 154 0 160 -8 221 -26 206 -8 -6 -22 -9 -32 -7 -18 5 -19
-6 -25 -169 -5 -146 -9 -179 -23 -194 -16 -18 -35 -19 -280 -19 -310 0 -294
-6 -294 118 0 65 -2 73 -15 62 -11 -9 -22 -9 -44 -2 -16 6 -32 8 -35 5 -3 -4
-6 -38 -6 -76 0 -107 -1 -107 -186 -107 l-152 0 -26 31 c-14 17 -26 40 -26 52
0 15 52 74 165 187 l165 165 78 6 c42 3 239 5 437 5 l360 -1 21 -45z m-441
-492 c176 -1 285 -4 242 -5 -65 -3 -77 -6 -67 -17 8 -11 6 -20 -12 -38 -39
-41 -97 -80 -108 -73 -5 3 -10 -1 -10 -9 0 -10 -7 -13 -24 -10 -14 2 -31 -2
-39 -10 -8 -8 -29 -16 -47 -18 -19 -2 -36 -9 -38 -17 -3 -8 0 -11 6 -7 6 4 8
-2 5 -14 -5 -17 -9 -15 -34 19 -15 22 -38 43 -51 47 -13 4 -148 8 -300 8 -265
1 -278 2 -305 22 -24 18 -28 29 -31 79 l-3 58 248 -6 c136 -4 392 -8 568 -9z
m505 -313 c0 -106 3 -103 -82 -89 l-38 7 0 88 0 89 60 0 60 0 0 -95z"/>
<path d="M4670 6307 c0 -216 1 -225 23 -258 24 -35 81 -79 103 -79 24 0 15 15
-20 34 -19 10 -47 31 -62 47 -24 25 -26 32 -15 51 8 16 11 82 9 223 -3 181 -5
200 -20 203 -17 3 -18 -13 -18 -221z"/>
<path d="M4852 6498 c-8 -8 -12 -57 -12 -154 0 -119 3 -144 17 -155 12 -11 53
-14 170 -13 190 1 187 -2 191 122 3 101 -4 120 -39 102 -13 -7 -26 -17 -29
-21 -3 -4 -26 -17 -51 -27 l-46 -20 -17 29 c-19 33 -11 53 25 64 10 4 19 14
19 23 0 10 7 28 16 40 l15 22 -123 0 c-83 0 -128 -4 -136 -12z"/>
<path d="M5589 6494 c-19 -23 -18 -276 0 -298 11 -13 40 -16 182 -16 l169 0
10 26 c12 30 12 157 0 229 -4 28 -8 44 -9 37 0 -7 -21 -22 -46 -33 -24 -11
-47 -24 -50 -29 -9 -15 -52 -12 -58 5 -4 8 -2 17 3 20 6 4 6 14 -1 26 -6 11
-8 27 -5 35 8 22 -176 20 -195 -2z"/>
<path d="M4100 3710 l0 -140 -170 0 -170 0 0 105 0 105 -75 0 -75 0 0 -300 0
-300 70 0 70 0 0 120 0 120 176 0 175 0 -7 -120 -7 -120 77 0 76 0 0 335 0
335 -70 0 -70 0 0 -140z"/>
<path d="M4364 3758 c25 -94 33 -488 11 -555 l-7 -23 261 0 261 0 0 75 0 75
-185 0 -185 0 0 50 0 50 160 0 160 0 0 60 0 59 -157 3 -158 3 -3 42 -3 43 188
2 188 3 3 68 3 67 -272 0 -271 0 6 -22z"/>
<path d="M4984 3734 c3 -26 6 -161 6 -301 l0 -254 58 3 57 3 3 203 2 203 23
-6 c103 -31 390 -220 514 -338 l93 -89 0 311 0 311 -65 0 -65 0 0 -150 c0 -82
-2 -150 -5 -150 -2 0 -46 28 -97 63 -142 97 -294 188 -357 213 -36 15 -77 24
-115 24 l-59 0 7 -46z"/>
<path d="M5850 3760 c7 -14 10 -114 8 -300 l-3 -280 58 0 57 0 0 110 0 110 34
0 c45 0 115 -71 153 -157 l28 -62 79 -1 c90 0 88 -6 31 96 -19 33 -52 79 -74
102 l-41 42 29 14 c99 52 130 201 59 282 -45 51 -103 64 -280 64 -146 0 -149
0 -138 -20z m252 -100 c66 -19 86 -73 43 -115 -21 -22 -33 -25 -100 -25 l-75
0 0 75 0 75 48 0 c26 0 64 -5 84 -10z"/>
<path d="M6330 3718 c58 -72 167 -228 206 -294 26 -44 27 -50 21 -145 l-6 -99
69 0 68 0 4 118 3 117 104 170 c57 94 106 176 108 183 4 9 -11 12 -53 12 -33
0 -68 -3 -79 -6 -13 -3 -39 -41 -72 -102 -83 -156 -68 -155 -159 -16 l-79 119
-93 3 -93 3 51 -63z"/>
</g>
</svg>
